<svg width="96" height="96" viewBox="0 0 96 96" fill="none" xmlns="http://www.w3.org/2000/svg">
  <rect width="96" height="96" rx="24" fill="#15191E"/>
  <path d="M48 14L76 25V46C76 64 64.2 78.7 48 84C31.8 78.7 20 64 20 46V25L48 14Z" fill="#0A84FF"/>
  <path d="M48 23L67 30.4V46.5C67 58.6 59.2 69.2 48 74C36.8 69.2 29 58.6 29 46.5V30.4L48 23Z" fill="#10151B"/>
  <rect x="36" y="43" width="24" height="19" rx="4" fill="#0A84FF"/>
  <path d="M41 43V37C41 33.1 44.1 30 48 30C51.9 30 55 33.1 55 37V43" stroke="#8EC5FF" stroke-width="4" stroke-linecap="round"/>
</svg>
