<svg xmlns:xlink="http://www.w3.org/1999/xlink" xmlns="http://www.w3.org/2000/svg" xmlns:svg="http://www.w3.org/2000/svg" version="1.1" id="svg1" width="316.6583009555137" height="315.79781644204763" viewBox="0 0 367.64537 367.43665">
  <defs id="defs1">
    <linearGradient x1="0" y1="0" x2="1" y2="0" gradientUnits="userSpaceOnUse" gradientTransform="matrix(-1.53e-5,349.00049,349.00049,1.53e-5,398.08301,127.10938)" spreadMethod="pad" id="linearGradient521">
      <stop style="stop-opacity:1;stop-color:#d00051" offset="0" id="stop518"/>
      <stop style="stop-opacity:1;stop-color:#d00051" offset="0.115434" id="stop519"/>
      <stop style="stop-opacity:1;stop-color:#ff2ef4" offset="0.861109" id="stop520"/>
      <stop style="stop-opacity:1;stop-color:#ff2ef4" offset="1" id="stop521"/>
    </linearGradient>
    <linearGradient xlink:href="#linearGradient521" id="linearGradient2" gradientUnits="userSpaceOnUse" gradientTransform="matrix(-1.53e-5,349.00049,349.00049,1.53e-5,398.08301,127.10938)" x1="-1.0341357" y1="-0.80474508" x2="-0.034135997" y2="-0.80474508" spreadMethod="pad"/>
  </defs>
  <g id="layer-MC0" transform="translate(-6869.5583,-216.22701)">
    <g id="g1">
      <path id="path471" style="font-variation-settings:normal;baseline-shift:baseline;display:inline;overflow:visible;opacity:1;vector-effect:none;fill:url(#linearGradient2);fill-opacity:1;stroke:none;stroke-width:1;stroke-linecap:butt;stroke-linejoin:miter;stroke-miterlimit:4;stroke-dasharray:none;stroke-dashoffset:0;stroke-opacity:1;-inkscape-stroke:none;enable-background:accumulate;stop-color:#000000;stop-opacity:1" d="M 114.98701,76.849595 C 107.35408,76.610953 99.640665,75.732386 91.908401,74.173325 56.774979,67.090032 27.440185,47.198238 7.8498049,20.3535 a 4,4 0 0 1 0.8730469,-5.588379 4,4 0 0 1 2.9750982,-0.722168 4,4 0 0 1 2.614746,1.595214 c 18.45962,25.295262 46.039691,44.013143 79.176271,50.693849 29.170943,5.881755 57.987053,1.494772 82.769533,-10.669922 a 4,4 0 0 1 5.35107,1.828125 4,4 0 0 1 -1.82812,5.351075 c -19.72764,9.68348 -41.89563,14.724227 -64.79444,14.008301 z m 0.51563,-16.705079 C 108.79099,59.934767 102.00906,59.161368 95.211623,57.790512 29.695687,44.581296 -12.77109,-19.334161 0.43916017,-84.850116 l 0.0629883,-0.306153 c 1.83014003,-9.60488 -1.16971128,-18.978271 -7.34912127,-25.645021 a 4,4 0 0 1 0.2138672,-5.65137 4,4 0 0 1 2.8710938,-1.06494 4,4 0 0 1 2.78173836,1.27881 c 7.92801994,8.55327 11.77692844,20.693954 9.29882834,32.979494 l -0.1508789,0.744141 c -11.87997,61.011405 27.599913,120.158918 88.625979,132.462894 12.715125,2.564289 25.345325,2.886102 37.502935,1.243652 a 4,4 0 0 1 4.5,3.429199 4,4 0 0 1 -3.4292,4.5 c -6.5122,0.879775 -13.1531,1.233676 -19.86475,1.023926 z m 39.48779,-5.506348 a 4,4 0 0 1 -4.00195,-2.774414 4,4 0 0 1 2.58838,-5.030273 c 37.75996,-12.10602 68.02625,-43.7233707 76.42969,-85.394534 l 0.15234,-0.755859 c 5.65018,-28.442242 6.51663,-56.716113 3.12012,-83.998538 a 4,4 0 0 1 3.47461,-4.46338 4,4 0 0 1 4.46338,3.47461 c 3.53126,28.364785 2.62358,57.774976 -3.33545,87.326663 l -0.68994,3.411622 -0.15235,-0.0088 c -9.92243,42.8578146 -41.63172,75.398157 -81.02197,88.026857 a 4,4 0 0 1 -1.02686,0.186035 z m 40.86182,-2.040527 a 4,4 0 0 1 -3.10254,-1.697754 4,4 0 0 1 0.97705,-5.572266 C 220.0175,26.878692 239.5329,-1.2702612 246.38643,-35.259295 a 4,4 0 0 1 0.21973,-0.723633 c 1.81259,-9.262303 2.58938,-18.484108 2.41553,-27.549317 a 4,4 0 0 1 3.92431,-4.07666 4,4 0 0 1 4.0752,3.924317 c 0.18952,9.882143 -0.68742,19.938276 -2.72022,30.021973 a 4,4 0 0 1 -0.22265,0.732422 c -7.40102,35.7037536 -28.04951,65.361996 -55.75782,84.805666 a 4,4 0 0 1 -2.46826,0.722168 z m -76.67871,-9.117188 c -6.81216,-0.0012 -13.72418,-0.674621 -20.658694,-2.072754 -43.39335,-8.75036 -75.080635,-43.2808664 -82.237795,-84.462892 a 4,4 0 0 1 3.254883,-4.627442 4,4 0 0 1 4.625977,3.256348 c 6.60483,38.0039737 35.800852,69.899038 75.937499,77.992678 52.22604,10.529777 102.9961,-23.202576 113.52686,-75.430666 l 0.14502,-0.720704 c 0.79987,-4.028376 1.51445,-8.053079 2.11084,-12.071777 a 4,4 0 0 1 4.54541,-3.369141 4,4 0 0 1 3.36914,4.54541 c -0.6521,4.394079 -1.42102,8.79346 -2.30859,13.196778 l -0.58008,2.878418 -0.17871,0.02051 C 209.63366,10.553773 166.85867,43.488731 119.17354,43.480453 Z m 2.58398,-16.747559 c -6.55764,0.19101 -13.23797,-0.355412 -19.93945,-1.706543 -6.784538,-1.367166 -13.231315,-3.487814 -19.268556,-6.254883 a 4,4 0 0 1 -1.97168,-5.302734 4,4 0 0 1 5.302735,-1.970215 c 5.482759,2.512931 11.340603,4.43876 17.518071,5.683594 v 0.0015 c 24.41007,4.921478 48.40809,-1.8672 66.2622,-16.48974689 a 4,4 0 0 1 2.93116,-0.88476565 4,4 0 0 1 2.69677,1.44580084 4,4 0 0 1 -0.55957,5.6279298 C 160.00079,18.945386 141.43046,26.159864 121.75752,26.732894 Z M 119.41084,10.051253 C 114.69921,10.066632 109.91717,9.6091085 105.12129,8.6420735 66.752334,0.9058335 41.854309,-36.567595 49.590529,-74.937518 l 0.205078,-1.018067 c 1.47924,-7.856681 1.822996,-15.659141 1.015136,-23.220704 a 4,4 0 0 1 3.552247,-4.401851 4,4 0 0 1 4.40332,3.55078 c 0.92863,8.692004 0.561444,17.672145 -1.256836,26.685056 l -0.312012,1.549805 C 51.289212,-38.21897 73.095144,-5.9755753 106.70332,0.80076471 140.74697,7.6652847 173.7973,-14.233374 180.79366,-48.218768 l 0.0527,-0.257812 c 5.26449,-26.111326 5.52046,-52.04771 1.43555,-76.84571 a 4,4 0 0 1 3.2959,-4.59814 4,4 0 0 1 4.59814,3.29736 c 4.10075,24.89418 3.87434,50.909338 -1.07812,77.084478 l 0.11865,0.0835 -0.51709,2.566406 c -6.7701,33.572662 -36.30716,56.8322934 -69.28858,56.939943 z M 66.333693,8.0912922 A 4,4 0 0 1 63.92256,7.1977375 C 39.426872,-12.695382 26.54501,-45.198742 33.207716,-78.242206 l 0.183105,-0.915527 C 37.78787,-102.75282 28.454983,-125.75187 10.914258,-139.84328 a 4,4 0 0 1 -0.613769,-5.625 4,4 0 0 1 2.686523,-1.47071 4,4 0 0 1 2.938477,0.85694 c 20.032016,16.0928 30.611548,42.54377 25.187989,69.435059 l -0.186036,0.918457 c -5.63916,29.764352 6.013975,58.830194 28.037111,76.71533387 A 4,4 0 0 1 69.549025,6.6132649 4,4 0 0 1 66.333693,8.0912922 Z M -0.20097657,3.995589 A 4,4 0 0 1 -3.5598634,1.8246905 C -17.269072,-24.943948 -22.347635,-56.397355 -15.943653,-88.154804 a 4,4 0 0 1 0.227051,-0.744141 c 0.356568,-1.719578 0.742798,-3.426925 1.161621,-5.121093 a 4,4 0 0 1 4.8442386,-2.922364 4,4 0 0 1 2.9238282,4.841309 c -0.4517781,1.827471 -0.8666466,3.674936 -1.2436524,5.541504 a 4,4 0 0 1 -0.215332,0.713379 C -14.062958,-56.142875 -9.2513,-26.841064 3.5607423,-1.8242354 A 4,4 0 0 1 1.8249024,3.5605304 4,4 0 0 1 -0.20097657,3.995589 Z M 115.95967,-6.7578292 c -2.49871,-0.1500847 -5.01526,-0.4746181 -7.53516,-0.9829102 C 79.103739,-13.652968 60.062564,-42.313456 65.974806,-71.634296 l 0.270996,-1.347656 c 6.520146,-34.883088 -6.552975,-68.959518 -31.653809,-90.698728 a 4,4 0 0 1 -0.404297,-5.64112 4,4 0 0 1 2.736328,-1.37109 4,4 0 0 1 2.904786,0.96533 c 27.540533,23.85217 41.788095,61.46478 34.081055,99.691409 l -0.1875,0.927246 c -4.466355,24.744519 11.517848,48.531519 36.284185,53.525392 4.3102,0.869416 8.59172,1.108367 12.75732,0.783691 a 4,4 0 0 1 4.29932,3.678223 4,4 0 0 1 -3.67823,4.2978518 c -2.4462,0.190662 -4.92658,0.2160027 -7.42529,0.065918 z m 70.94971,-0.9155274 a 4,4 0 0 1 -2.45361,-0.7646485 4,4 0 0 1 -0.87745,-5.5883789 c 6.55224,-8.99302 11.31478,-19.503023 13.6626,-31.141114 l 0.0176,-0.08789 c 8.92034,-44.321191 4.46191,-88.191322 -10.57471,-127.501472 a 4,4 0 0 1 2.3086,-5.1665 4,4 0 0 1 5.16357,2.30859 c 15.56787,40.69899 20.17775,86.168167 10.93067,132.026374 l -0.23877,1.183594 -0.0952,0.09522 c -2.66519,12.265292 -7.74208,23.430644 -14.70996,32.9941415 a 4,4 0 0 1 -3.1333,1.6420899 z m -43.38135,-5.3422854 a 4,4 0 0 1 -3.43359,-2.052246 4,4 0 0 1 1.54541,-5.44043 c 11.2712,-6.28413 19.82411,-17.200465 22.7124,-30.799805 l 0.0967,-0.47461 c 9.96089,-49.396547 0.48648,-98.146787 -23.14453,-138.430667 a 4,4 0 0 1 1.42529,-5.47266 4,4 0 0 1 3.03076,-0.42187 4,4 0 0 1 2.4419,1.84717 c 24.06029,41.01566 33.88578,90.54112 24.59179,140.778809 l 0.16993,0.07031 -0.64893,3.221191 c -3.25841,16.15519 -13.4152,29.218705 -26.77881,36.669435 a 4,4 0 0 1 -2.0083,0.505371 z m -24.24902,-10.36377 c -2.49068,0.009 -5.01885,-0.231767 -7.55274,-0.742675 -15.141508,-3.054209 -26.351606,-14.86724 -29.327635,-29.131349 a 4,4 0 0 1 3.099609,-4.734375 4,4 0 0 1 4.732911,3.099609 c 2.33797,11.205891 11.100655,20.509016 23.077145,22.924806 15.89625,3.205171 31.24915,-6.922165 34.66114,-22.721192 l 0.082,-0.404297 c 2.38722,-11.842144 3.55512,-23.639322 3.5874,-35.269044 a 4,4 0 0 1 4.01221,-3.98877 4,4 0 0 1 3.9873,4.012208 c -0.0306,11.02742 -1.18038,22.202873 -3.22851,33.410157 l 0.19922,0.07178 -0.67676,3.358887 c -3.57634,17.737091 -19.21862,30.051117 -36.65332,30.114258 z m -0.0659,-16.716797 c -1.38021,0.0058 -2.77922,-0.12723 -4.18213,-0.410156 C 103.81,-42.769785 96.47867,-53.801141 98.741917,-65.024921 l 0.458496,-2.273437 c 3.164277,-17.259 2.852687,-34.359672 -0.615234,-50.542972 a 4,4 0 0 1 3.074711,-4.74902 4,4 0 0 1 4.74902,3.07324 c 3.84616,17.9484 4.14952,36.967974 0.29297,56.093264 l -0.23731,1.183594 c -0.69773,6.53454 3.57,12.565608 10.14844,13.892578 6.8042,1.3722 13.30005,-2.83995 14.93555,-9.51416 l 0.10693,-0.533204 c 9.82173,-48.705292 -3.11563,-96.658732 -31.47656,-132.950682 a 4,4 0 0 1 0.68994,-5.61475 4,4 0 0 1 2.94873,-0.81885 4,4 0 0 1 2.66602,1.50733 c 29.05667,37.18226 42.60774,86.11264 33.62109,135.940429 l 0.14795,0.04834 -0.70312,3.487793 c -1.98042,9.81904 -10.67498,16.658961 -20.33643,16.699219 z m 0.2168,-16.820801 a 4,4 0 0 1 -1.04151,-0.07178 4,4 0 0 1 -3.13183,-4.710937 c 9.4177,-46.707663 -4.47894,-92.645143 -33.663579,-125.862303 a 4,4 0 0 1 0.364746,-5.64698 4,4 0 0 1 2.898926,-0.98584 4,4 0 0 1 2.748047,1.35059 c 30.76936,35.02084 45.4164,83.52477 35.49609,132.725099 a 4,4 0 0 1 -3.67089,3.202149 z M 18.664747,-60.892596 a 4,4 0 0 1 -3.832032,-4.160157 c 0.223546,-5.458678 0.875282,-10.97102 1.989258,-16.494141 l 0.155274,-0.766113 C 20.086371,-99.198148 13.647931,-115.64484 1.3883789,-126.03273 a 4,4 0 0 1 -0.46582028,-5.63965 4,4 0 0 1 2.72167978,-1.40039 4,4 0 0 1 2.916504,0.93603 c 14.6031646,12.37372 22.1997826,32.1279 18.1567386,52.183596 l -0.262207,1.296387 c -0.875351,4.667142 -1.441588,9.322312 -1.630371,13.932129 a 4,4 0 0 1 -4.160156,3.832032 z m 68.973634,-10.164551 a 4,4 0 0 1 -0.521484,-0.03662 4,4 0 0 1 -3.424805,-4.5 c 5.067569,-37.391803 -8.904278,-73.482923 -34.93213,-97.833993 a 4,4 0 0 1 -0.1875,-5.65429 4,4 0 0 1 2.787598,-1.26563 4,4 0 0 1 2.865234,1.07666 c 27.866148,26.07093 42.814034,64.74078 37.391603,104.750983 a 4,4 0 0 1 -3.978516,3.462891 z m 134.169439,-0.09229 a 4,4 0 0 1 -3.73975,-4.243653 c 1.70536,-27.02586 -1.08766,-53.55283 -7.80469,-78.74707 a 4,4 0 0 1 2.83301,-4.89551 4,4 0 0 1 4.89697,2.83301 c 6.93498,26.01176 9.81876,53.41135 8.05811,81.313476 a 4,4 0 0 1 -4.24365,3.739747 z m -67.41504,-36.414553 a 4,4 0 0 1 -3.90381,-3.54639 c -3.36369,-29.49854 -13.98939,-57.35052 -30.37207,-81.2915 a 4,4 0 0 1 1.0415,-5.56054 4,4 0 0 1 2.99561,-0.62989 4,4 0 0 1 2.56494,1.67139 c 17.10532,24.99702 28.20395,54.08436 31.71826,84.90381 a 4,4 0 0 1 -3.52148,4.42822 4,4 0 0 1 -0.52295,0.0249 z m -104.881353,-9.34278 a 4,4 0 0 1 -3.638672,-2.55176 c -4.978489,-12.8176 -13.218889,-24.21434 -23.900391,-32.96484 a 4,4 0 0 1 -0.55957,-5.62939 4,4 0 0 1 2.698242,-1.44434 4,4 0 0 1 2.929687,0.88623 c 11.754498,9.62952 20.812041,22.15542 26.289552,36.25781 a 4,4 0 0 1 -2.280762,5.1753 4,4 0 0 1 -1.538086,0.27099 z M 96.238479,-135.251 a 4,4 0 0 1 -3.644531,-2.5459 c -6.359441,-16.29588 -15.953602,-31.17584 -28.155763,-43.6875 a 4,4 0 0 1 0.07031,-5.65576 4,4 0 0 1 2.841797,-1.13672 4,4 0 0 1 2.813965,1.20703 c 12.951839,13.28035 23.132253,29.06566 29.882813,46.36378 a 4,4 0 0 1 -2.271973,5.18115 4,4 0 0 1 -1.536621,0.27392 z m 85.494141,-7.5498 a 4,4 0 0 1 -3.86279,-2.96631 c -3.54822,-13.25158 -8.35748,-26.07464 -14.31445,-38.30274 a 4,4 0 0 1 1.84277,-5.34814 4,4 0 0 1 3.05713,-0.18604 4,4 0 0 1 2.29101,2.03028 c 6.17903,12.68391 11.16734,25.98786 14.84912,39.73828 a 4,4 0 0 1 -2.82714,4.89844 4,4 0 0 1 -1.03565,0.13623 z" transform="matrix(1.3333333,0,0,-1.3333333,6894.4752,318.78253)"/>
    </g>
  </g>
</svg>